<svg xmlns="http://www.w3.org/2000/svg" xmlns:xlink="http://www.w3.org/1999/xlink" width="144" height="83" viewBox="0 0 144 83"><defs><path id="5b0ta" d="M122.28 95.9a35.23 35.23 0 0 1-5.05 16.92 35.53 35.53 0 0 1-16.4 14.37 33.33 33.33 0 0 1-9.7 2.67c-9.91 1.16-18.88-1.23-26.77-7.37a34.84 34.84 0 0 1-12.48-19.07 34.63 34.63 0 0 1-1-11.84 34.8 34.8 0 0 1 7.43-18.9A35.22 35.22 0 0 1 77 60.22c3.98-1.1 8.04-1.5 12.15-1.19 7.15.55 13.6 2.98 19.27 7.37a35.19 35.19 0 0 1 12.28 17.62 34.3 34.3 0 0 1 1.52 8.31c.02.2-.05.42.12.58-.07.6-.16 1.21-.13 1.83.02.38.09.76.07 1.15zM110.85 83.5c-2.34.02-4.46.47-6.35 1.68-3.71 2.38-5.4 5.85-4.95 10.2.4 4.12 2.61 7.06 6.41 8.72a12.15 12.15 0 0 0 7.25.68c2.9-.54 5.27-1.96 6.97-4.4a10.5 10.5 0 0 0 1.8-7.37 10.18 10.18 0 0 0-3.58-6.86 11.4 11.4 0 0 0-7.55-2.65zm-15.1 10.56l.23-.18c3.4-2.47 2.68-6.57.58-8.64a6.68 6.68 0 0 0-7.45-1.08 5.79 5.79 0 0 0-3 7.36 6.17 6.17 0 0 0 2.05 2.5c-.07.14-.21.19-.32.25-3.48 2.11-3.42 6.9-.46 9.2a7.67 7.67 0 0 0 8.57.42 5.77 5.77 0 0 0 2.1-7.48 5.29 5.29 0 0 0-2.3-2.35zm-23.9-4.8c.32-.34.56-.62.81-.9a6.01 6.01 0 0 1 2.8-1.76c2.35-.6 4.34.7 4.69 3.1a6.6 6.6 0 0 1-.86 4.16 41.65 41.65 0 0 1-3.94 5.8c-1.22 1.59-2.5 3.13-3.79 4.67-.07.1-.18.18-.14.31.05.15.2.08.29.08h12.75c.21 0 .29-.04.28-.27-.01-.73-.02-1.46 0-2.19 0-.3-.05-.4-.39-.4H76.7c.22-.26.39-.45.55-.66 1.57-1.9 3.13-3.8 4.4-5.92 1.2-2.03 1.88-4.19 1.46-6.56-.42-2.41-1.74-4.1-4.1-4.87-2.65-.86-4.96-.1-7.06 1.56-.09.07-.11.16-.11.26.02 1.17.02 2.32.02 3.6z"/><path id="5b0tb" d="M122.28 95.9c.02-.39-.05-.77-.07-1.15-.03-.61.06-1.23.13-1.83a10.12 10.12 0 0 1 4.7-7.28 11.75 11.75 0 0 1 7.37-1.73c2.1.14 4.03.83 5.94 1.62.1.05.22.08.22.24v2.8c-.54-.25-1.03-.5-1.54-.72-1.96-.84-4-1.3-6.14-1.26-4.6.1-8.1 4.17-7.57 8.74.43 3.67 3.09 6.15 6.58 6.72 2.04.34 4-.01 5.95-.6.15-.05.2-.13.2-.3-.01-1.23-.02-2.47 0-3.71 0-.24-.08-.28-.3-.28h-3.32c-.24 0-.35-.02-.34-.31.02-.7.01-1.39 0-2.08 0-.19.05-.25.24-.24h6.42c.19 0 .25.06.25.24V103c0 .14-.04.22-.17.28-3.68 1.56-7.47 2.23-11.34 1.03-4.04-1.25-6.45-4.05-7.13-8.28a.67.67 0 0 1-.08-.14z"/><path id="5b0tc" d="M184.17 104.28v6.79c0 .3-.05.4-.37.38-.64-.03-1.29-.03-1.93 0-.31.01-.4-.06-.4-.39v-9.9-9.6c0-.3.07-.38.37-.38l4.6.01c1.2.01 2.38.19 3.51.63a5.45 5.45 0 0 1 3.47 3.8 8 8 0 0 1-.15 5.03c-.95 2.47-2.8 3.78-5.37 4.16a6.84 6.84 0 0 1-3.73-.53zm0-6.56l-.01 3.83c0 .28.1.4.34.5.49.18 1 .32 1.5.4 1.81.29 3.57-.55 4.44-2.13.59-1.07.68-2.23.5-3.42a3.66 3.66 0 0 0-3.31-3.25c-1.05-.15-2.1-.04-3.16-.08-.24-.01-.3.05-.3.3v3.85z"/><path id="5b0td" d="M159.36 104.87c-3.27 0-5.85-1.83-6.79-4.82a6.86 6.86 0 0 1 5.14-8.98c2.87-.65 6.15.33 7.86 2.88 2.25 3.36 1.25 9.8-4.69 10.8-.5.08-1 .13-1.52.12zm4.58-7.09zm-.08-.84c-.5-2.84-3.15-4.1-5.6-3.54-2.06.47-3.34 2.21-3.28 4.5.1 4.16 3.7 5.4 6.57 4.12 1.75-.8 2.33-2.35 2.39-4.24-.02-.23-.02-.54-.08-.84z"/><path id="5b0te" d="M176.67 102.92a6.5 6.5 0 0 1-2.67 1.73 4.4 4.4 0 0 1-5.73-3.28 7.51 7.51 0 0 1-.21-1.8l-.01-8.09c0-.25.06-.33.31-.32.68.02 1.37.02 2.04 0 .27 0 .35.06.35.34-.02 2.66-.01 5.31-.01 7.97 0 .35 0 .7.06 1.05.3 1.47 1.36 2.25 2.86 2.13a4.06 4.06 0 0 0 2.91-1.74c.11-.13.1-.29.1-.44l-.01-8.89c0-.36.1-.43.44-.42.66.03 1.31.02 1.97 0 .2 0 .3.03.3.28v12.9c0 .2-.07.26-.27.25-.73-.02-1.46 0-2.19 0-.19 0-.24-.05-.24-.25v-1.42z"/><path id="5b0tf" d="M146.26 94.19c.44-.59.8-1.2 1.27-1.74a4.64 4.64 0 0 1 1.72-1.37c.96-.4 1.88-.18 2.75.28.46.23.85.56 1.24.89.16.13.18.23.07.41-.4.61-.77 1.23-1.15 1.86-.1.18-.16.21-.33.06a5.34 5.34 0 0 0-1.2-.82c-1.03-.55-2-.38-2.87.32a4.23 4.23 0 0 0-1.5 3.42c-.02 2.23 0 4.46 0 6.7 0 .3-.04.42-.38.4-.66-.04-1.33-.02-2-.01-.22 0-.32-.03-.32-.29V91.46c0-.22.05-.3.28-.3.71.02 1.43.02 2.15 0 .25 0 .27.1.27.3v2.73z"/><path id="5b0tg" d="M138.21 134.97c.45-.8.9-1.58 1.33-2.37.1-.18.2-.26.42-.25.34.02.79-.12.98.06.23.2.07.66.07 1v5.07c0 .23-.04.33-.28.3-.36-.04-.84.15-1.05-.07-.17-.2-.05-.68-.05-1.03v-3.02l-1.01 1.9c-.11.2-.1.52-.4.53-.33.01-.32-.32-.42-.51-.34-.6-.65-1.21-1.02-1.8v3.51c0 .48 0 .49-.46.48-.3 0-.71.14-.87-.06-.15-.18-.05-.57-.06-.87v-5.18c0-.26.07-.28.31-.32.77-.12 1.24.14 1.53.88.22.56.59 1.08.89 1.61l.1.14z"/><path id="5b0th" d="M54.33 135.5c-.01-.63.1-1.24.38-1.8.48-.93 1.24-1.46 2.3-1.41 1.03.05 1.73.61 2.1 1.54.47 1.14.46 2.3.02 3.44a2.35 2.35 0 0 1-2.27 1.57c-1 0-1.83-.58-2.23-1.57a4.56 4.56 0 0 1-.3-1.77zm3.61.09zm-.19-1.42c-.16-.38-.42-.61-.86-.61-.4 0-.72.19-.85.6-.3.93-.28 1.87 0 2.8.13.41.46.62.85.6.43 0 .71-.2.88-.63.16-.43.14-.9.17-1.34-.03-.5 0-.97-.19-1.42z"/><path id="5b0ti" d="M166.45 135.07c.9-1.03 1.9-.98 2.58.08.2-.29.4-.57.75-.7.94-.4 1.92.22 1.97 1.3.05.94 0 1.9.02 2.84 0 .13-.03.21-.18.2h-.07c-.37-.01-.84.12-1.06-.06-.23-.19-.06-.67-.07-1.04-.02-.54 0-1.1-.02-1.64-.01-.52-.16-.7-.5-.7-.35.02-.73.41-.73.78v2.37c.02.25-.06.31-.3.3a4.94 4.94 0 0 0-.8 0c-.22.01-.29-.04-.28-.28v-2.22c0-.17 0-.34-.05-.5-.13-.46-.5-.59-.86-.28-.24.2-.41.44-.4.8.03.73 0 1.46.02 2.19 0 .25-.08.3-.31.29-.3-.02-.58-.01-.87 0-.16 0-.22-.04-.22-.2v-3.98c0-.16.06-.2.2-.2.3 0 .6.02.88 0 .27-.02.35.08.3.33v.32z"/><path id="5b0tj" d="M72.89 135c.89-.99 2.02-.85 2.55.16.26-.46.62-.79 1.16-.83.87-.06 1.53.53 1.55 1.46.03.92 0 1.84 0 2.77 0 .17-.04.25-.22.23h-.07c-.35-.01-.81.11-1.02-.06-.22-.19-.06-.67-.07-1-.01-.56.01-1.1-.01-1.65-.02-.52-.16-.72-.48-.72-.38 0-.75.4-.76.82v2.33c.01.22-.05.3-.27.28-.3-.02-.58-.02-.88 0-.2.02-.23-.07-.23-.25v-2.18-.18c-.01-.54-.19-.82-.52-.82-.38 0-.78.45-.78.9v2.3c0 .18-.05.25-.24.24h-.92c-.2.01-.24-.07-.23-.26v-3.86c0-.2.04-.29.26-.27.14.02.29 0 .43 0 .66-.01.66-.01.75.6z"/><path id="5b0tk" d="M93.85 138.85c-.41-.18-.63-.41-.6-.8.03-.4.3-.56.65-.7-.42-.3-.73-.67-.78-1.2-.1-.98.59-1.72 1.72-1.8.72-.06 1.45-.02 2.18-.03.14 0 .2.05.2.19-.01.13-.02.27 0 .4 0 .16-.04.24-.23.22h-.58c.47.82.49 1.38.05 1.93-.4.5-.97.55-1.54.62-.13.01-.27.02-.39.05-.12.03-.24.09-.23.24.01.14.14.2.26.22.31.03.63.05.94.06.3.02.58.05.85.15.5.17.79.52.85 1.03.06.54-.16.97-.64 1.2-1 .5-2.04.48-3.06.03-.37-.17-.62-.47-.6-.92.03-.52.43-.72.95-.89zm.5-2.77c0 .15.03.3.09.47.1.28.3.42.6.4.36-.05.55-.37.55-.9s-.18-.82-.53-.87c-.46-.05-.7.26-.7.9zm.7 4.14c.25-.01.49-.03.71-.12.2-.07.3-.2.32-.4 0-.2-.1-.34-.3-.41a1.87 1.87 0 0 0-1.44.02c-.16.07-.28.19-.28.39.01.2.14.32.32.4.22.1.45.1.68.12z"/><path id="5b0tl" d="M158.34 137.62c-.26.02-.53.05-.8.1-.12.02-.27.07-.27.24.01.17.15.21.29.23l1.12.07c.27.02.53.07.77.18.44.21.7.56.73 1.05.02.53-.2.94-.68 1.15-.98.46-2 .46-3 .03-.38-.17-.65-.48-.63-.94.04-.52.43-.72.9-.87-.35-.21-.63-.45-.54-.9.07-.33.32-.49.61-.6-.02-.1-.12-.13-.19-.19-.9-.75-.72-2.12.35-2.61.32-.16.66-.23 1.02-.23h1.86c.22-.01.34.04.3.29a.75.75 0 0 0 0 .25c.04.24-.08.3-.29.27-.15-.02-.32 0-.55 0 .83.92.35 2.35-1 2.48zm.25-1.57c-.03-.13-.03-.26-.06-.4-.07-.3-.26-.48-.59-.47-.3 0-.47.19-.55.47-.05.18-.05.36-.04.54.03.48.24.75.6.76.37 0 .59-.26.62-.75v-.15h.02zm-.56 4.17c.24-.01.5-.03.74-.12.17-.08.28-.2.3-.38a.4.4 0 0 0-.28-.42c-.5-.2-1-.2-1.47.02-.16.07-.28.2-.26.4.02.19.13.3.3.38.2.09.43.1.67.12z"/><path id="5b0tm" d="M61.62 140.65c0 .18-.03.26-.23.25-.3-.02-.6-.02-.91 0-.2 0-.24-.07-.24-.25v-6c0-.2.06-.25.25-.25.25.02.5.03.76 0 .27-.02.46.02.36.4.17-.1.3-.2.44-.26.75-.4 1.55-.22 2 .5.6.97.62 2 .08 3-.44.83-1.28 1.03-2.12.59l-.39-.25v2.27zm1.45-4.1c.01-.28-.02-.55-.14-.81-.15-.34-.38-.47-.72-.4-.35.08-.6.35-.6.67 0 .36.03.73 0 1.08-.04.4.2.55.5.65.32.1.59 0 .76-.32.16-.27.2-.56.2-.87z"/><path id="5b0tn" d="M117.03 134.78c0-.73.02-1.4 0-2.07-.01-.26.03-.38.32-.35.34.02.8-.12.99.05.22.2.06.67.06 1.01l.01 5.07c0 .22-.04.32-.29.3-.23-.03-.46-.01-.7-.01-.24 0-.52.06-.39-.36-.06 0-.1 0-.1.02-.88.79-2.22.47-2.64-.97-.2-.73-.18-1.45.14-2.13.48-1.04 1.5-1.3 2.44-.67l.16.11zm0 1.82v-.7c0-.1 0-.18-.08-.26-.38-.43-1-.34-1.2.2-.2.5-.18 1.02-.01 1.52.11.36.4.52.73.46a.7.7 0 0 0 .57-.71v-.51z"/><path id="5b0to" d="M100.97 135.57v-2.92c0-.23.05-.3.29-.3.76.04 1.53-.06 2.29.06 1.1.17 1.73.97 1.66 2.02-.07.99-.79 1.65-1.87 1.72h-.66c-.19-.02-.25.04-.24.24v2.15c0 .19-.04.25-.23.24-.4-.02-.92.13-1.16-.07-.25-.2-.07-.75-.08-1.14v-2zm1.48-1.33v.18c0 .7.08.74.76.58.33-.08.5-.29.52-.6.03-.32-.02-.62-.32-.8-.28-.17-.6-.2-.88-.1-.21.07-.04.39-.08.6-.01.03 0 .09 0 .14z"/><path id="5b0tp" d="M178.55 135.03c.45-.57.97-.79 1.6-.68.66.12 1.06.63 1.09 1.43.02.93 0 1.85 0 2.77 0 .18-.04.25-.22.23h-.08c-.35 0-.8.11-1.02-.06-.22-.18-.05-.66-.06-1-.02-.54 0-1.08 0-1.61-.02-.52-.18-.77-.52-.79-.39-.01-.79.4-.8.84l.01 2.33c.01.25-.07.31-.3.3-.3-.03-.59-.02-.88 0-.15 0-.2-.05-.2-.2v-3.98c0-.16.04-.21.2-.21.27 0 .56.03.83-.01.3-.04.38.1.35.36v.28z"/><path id="5b0tq" d="M148.08 135.02c.46-.58.99-.8 1.63-.66.66.14 1.03.63 1.05 1.42.03.93 0 1.85.01 2.77 0 .18-.05.25-.22.23h-.08c-.35 0-.8.11-1.02-.06-.22-.18-.06-.66-.06-1l-.01-1.57c0-.55-.18-.81-.51-.83-.4-.01-.79.41-.8.88 0 .74-.02 1.48.01 2.22.02.32-.1.4-.38.37a4.9 4.9 0 0 0-.8 0c-.16 0-.21-.05-.2-.2v-3.98c0-.16.06-.21.2-.2.29 0 .57.02.85 0 .25-.03.39.03.33.32v.3z"/><path id="5b0tr" d="M89.65 134.98c.22-.25.44-.47.74-.58 1-.33 1.86.25 1.9 1.36.04.93.01 1.87.02 2.8 0 .2-.1.23-.24.22-.31 0-.6-.02-.91 0-.2.01-.25-.07-.24-.25.02-.45 0-.9 0-1.35v-1.06c0-.53-.18-.8-.52-.8-.39 0-.78.4-.78.85-.01.78-.02 1.55 0 2.33.01.23-.05.3-.28.28-.36-.04-.84.15-1.04-.08-.18-.2-.06-.67-.06-1.02v-3c0-.22.04-.33.3-.29.14.02.3 0 .46 0 .59 0 .59 0 .65.59z"/><path id="5b0ts" d="M122.05 138.28c-.4.48-.88.62-1.42.56-.7-.1-1.18-.63-1.19-1.43-.02-.94 0-1.88-.01-2.8 0-.16.02-.23.2-.22h.94c.2 0 .24.07.24.25v2.44c0 .57.13.76.5.76.4 0 .73-.35.74-.8v-2.33c0-.24.04-.35.3-.33.3.03.59.02.88 0 .16 0 .2.05.2.21v3.98c0 .16-.05.2-.2.2-.23 0-.47-.02-.7 0-.36.05-.6 0-.48-.49z"/><path id="5b0tt" d="M113.53 136.6c0 1.35-.88 2.29-2.15 2.29-1.21 0-2.11-.96-2.12-2.26-.02-1.32.9-2.3 2.13-2.3s2.14.97 2.14 2.28zm-1.45.03c0-.3 0-.59-.11-.86-.1-.26-.26-.43-.56-.44-.3 0-.48.15-.57.4a2.6 2.6 0 0 0 0 1.78c.09.25.28.38.55.39.3 0 .48-.16.58-.42.1-.28.1-.57.1-.85z"/><path id="5b0tu" d="M146.1 137.7c.1.74.02.87-.69 1.08-.59.18-.88.06-1.15-.5-.36.3-.71.57-1.2.57-.54 0-.94-.25-1.12-.72-.16-.44-.03-.91.36-1.24.46-.4 1.03-.58 1.59-.77.23-.08.4-.16.33-.45-.06-.26-.2-.4-.48-.4-.53-.03-.95.2-1.36.5l-.2.14v-.87c-.01-.14.08-.2.17-.25.75-.49 1.55-.6 2.4-.39.55.14.85.54.85 1.13v1.82c.01.54.01.54.5.36zm-1.87-.54v-.36c0-.1-.03-.19-.14-.14-.32.13-.64.24-.86.52a.45.45 0 0 0-.05.51c.09.18.25.23.43.24.42 0 .62-.25.62-.77z"/><path id="5b0tv" d="M153.74 138.27c-.39.35-.79.62-1.31.58-.46-.04-.81-.25-.99-.68-.17-.43-.1-.82.22-1.15.45-.49 1.07-.68 1.68-.89.22-.08.44-.13.36-.45-.07-.3-.25-.4-.54-.4-.57 0-1.01.28-1.5.65v-.88c0-.14.09-.19.18-.24.74-.5 1.55-.6 2.4-.4.55.15.84.55.85 1.13v1.82c0 .54 0 .54.5.35.07.84.15.75-.7 1.07-.58.2-.88.06-1.15-.5zm-.04-1.47c0-.1-.01-.19-.14-.14-.31.13-.64.24-.86.52a.45.45 0 0 0-.04.51c.09.18.25.23.42.24.43 0 .62-.25.62-.77v-.36z"/><path id="5b0tw" d="M164.12 137.63zm-.76 1.13c-.34.08-.7.12-1.05.08-.78-.08-1.35-.46-1.6-1.21a2.7 2.7 0 0 1 .3-2.5c.4-.6.97-.87 1.69-.78.69.08 1.13.5 1.37 1.14l.06.2c.32 1.07.27 1.13-.8 1.13-.38 0-.76.01-1.14-.01-.25-.01-.26.07-.2.3.18.7.74.99 1.53.76l.6-.24c.06.84.01.92-.76 1.13zm-.9-2.56zm.53-.21c.03-.53-.2-.87-.51-.87s-.55.36-.53.86c.01.4.35.1.5.22.17-.12.52.18.54-.21z"/><path id="5b0tx" d="M173.98 136.81c.1 1.1.68 1.32 2.17.84.08.8.01.9-.75 1.1-.35.1-.72.14-1.08.1a1.76 1.76 0 0 1-1.6-1.25 2.74 2.74 0 0 1 .13-2.16c.38-.79 1.07-1.2 1.87-1.1.73.07 1.3.63 1.49 1.48.22.99.22.99-.78.99h-1.45zm.5-.6c.17-.13.5.17.54-.22.03-.51-.2-.86-.5-.87-.32 0-.56.35-.54.85 0 .43.35.1.5.23z"/><path id="5b0ty" d="M81.26 138.78l1.76-3.34c-.44-.07-.84-.04-1.24-.03-.24 0-.33-.04-.33-.32.01-.69 0-.69.67-.69h2.9l-1.7 3.35c.48.07.93.04 1.38.03.27 0 .34.06.33.34-.02.67 0 .67-.65.67l-3.12-.01z"/><path id="5b0tz" d="M185.11 137.53v.8c0 .11-.04.17-.13.22-.43.22-.88.36-1.37.29-.72-.1-1.18-.62-1.2-1.38v-1.86c.01-.26-.02-.4-.32-.34-.1.01-.23.06-.3-.06-.06-.12.05-.2.12-.28l1.45-1.68c.08-.1.15-.25.32-.2.2.06.1.23.1.34.02.32-.1.75.07.95.17.2.6.06.94.06.2 0 .25.07.25.27 0 .61 0 .61-.6.61-.65 0-.65 0-.65.67v1.2c.02.59.31.78.86.57.15-.05.26-.19.46-.18z"/><path id="5b0tA" d="M68.33 137.49v.38c0 .7 0 .71-.68.9-1.17.34-2.02-.28-2.02-1.5 0-.56-.01-1.1.01-1.67.02-.28-.06-.37-.33-.34-.1.02-.24.07-.3-.06-.05-.12.07-.2.13-.28l1.48-1.7c.07-.1.14-.22.29-.16.17.05.09.2.1.3v.85c-.01.16.04.2.2.2h.8c.19-.01.25.04.25.23.01.64.02.64-.6.64-.65 0-.65 0-.65.64v1.2c.02.64.32.83.9.58l.42-.21z"/><path id="5b0tB" d="M131.45 137.5c-.02.37.17.8-.1 1-.4.33-.92.42-1.45.33a1.32 1.32 0 0 1-1.14-1.35v-1.86c.01-.27-.03-.4-.34-.36-.1.02-.23.07-.28-.07-.04-.1.05-.17.11-.25l1.48-1.7c.08-.1.15-.24.32-.18.16.05.08.2.08.32.03.33-.13.78.08.97.18.16.62.05.94.05.2-.01.24.06.25.24 0 .63.01.63-.62.63s-.63 0-.63.65v1.24c.02.57.31.76.84.55.14-.05.27-.13.46-.21z"/><path id="5b0tC" d="M127.68 137.55v.5c0 .57 0 .57-.56.72-1.24.32-2.4-.3-2.75-1.45-.36-1.22.25-2.5 1.38-2.88a2.32 2.32 0 0 1 1.66.08c.17.07.24.15.22.32v.83c-1.05-.37-1.35-.35-1.69.13-.33.48-.31 1.2.05 1.64.35.43.84.47 1.7.11z"/><path id="5b0tD" d="M107.23 135.83c.2-.35.3-.73.52-1.05.33-.5.8-.6 1.32-.28.07.04.18.07.16.17-.08.37-.16.73-.27 1.09-.04.14-.14.01-.2-.01-.49-.2-.76-.12-1.02.36-.35.65-.4 1.36-.4 2.08 0 .57 0 .57-.6.57-.78 0-.78 0-.78-.78v-3.31c0-.22.04-.31.27-.29.24.02.49.02.73 0s.28.08.28.3c-.03.38-.01.77-.01 1.15z"/><path id="5b0tE" d="M70.44 136.6l.01 1.92c0 .2-.04.27-.25.26-.37-.02-.84.11-1.06-.07-.23-.19-.07-.68-.07-1.04l-.01-2.98c0-.23.06-.32.3-.3.35.02.8-.11 1.02.07.22.18.05.65.06 1v1.13z"/><path id="5b0tF" d="M80.58 136.61v1.93c0 .19-.05.25-.24.24-.3-.02-.6-.02-.9 0-.21.01-.24-.07-.24-.26v-3.89c0-.2.07-.25.25-.24.37.03.85-.15 1.08.07.17.18.05.67.05 1.02v1.13z"/><path id="5b0tG" d="M87.21 136.6v1.92c.02.21-.05.27-.25.26-.36-.02-.84.11-1.05-.07-.23-.19-.07-.68-.07-1.04l-.01-2.95c-.01-.28.08-.35.34-.32.25.02.5.02.76 0 .22-.02.3.03.29.27-.02.64 0 1.28 0 1.93z"/><path id="5b0tH" d="M188.1 132.04v1.57c0 .08.06.2-.1.22-.19 0-.15-.12-.15-.22v-1.74c0-.1-.05-.24.14-.23.13 0 .28-.04.34.18.14.48.3.97.52 1.47l.41-1.26.09-.27c.07-.2.22-.1.34-.11.16-.02.13.1.13.2v1.74c0 .09.05.24-.13.24-.2 0-.12-.15-.12-.23 0-.52 0-1.04-.06-1.57l-.5 1.5c-.04.12-.01.3-.2.3-.17-.02-.15-.2-.18-.3-.17-.49-.32-1-.47-1.5l-.06.01z"/><path id="5b0tI" d="M86.51 133.78a.77.77 0 0 1-.75-.77c0-.4.36-.73.77-.73.43 0 .76.33.75.75 0 .43-.34.76-.77.75z"/><path id="5b0tJ" d="M79.9 133.78a.76.76 0 0 1-.77-.75c-.01-.38.33-.73.73-.75.43-.01.78.32.79.73 0 .43-.32.77-.75.77z"/><path id="5b0tK" d="M70.52 133.04c0 .42-.35.76-.78.74a.77.77 0 0 1-.75-.77c.01-.4.36-.73.76-.73.44 0 .77.34.77.76z"/><path id="5b0tL" d="M186.58 132.82v-.4c0-.52 0-.52-.53-.57-.08 0-.18.02-.18-.1 0-.14.1-.12.18-.12h1.38c.07 0 .15-.01.16.1 0 .13-.08.12-.17.12-.17.01-.42-.05-.51.05-.13.13-.05.38-.05.59v1.12c0 .08.05.2-.11.21-.16 0-.18-.08-.17-.2v-.8z"/><path id="5b0tM" d="M110.85 83.51c2.74.03 5.36.78 7.56 2.66a10.2 10.2 0 0 1 3.57 6.86 10.59 10.59 0 0 1-8.77 11.77c-2.47.46-4.92.33-7.24-.69-3.8-1.66-6-4.59-6.42-8.7-.43-4.37 1.24-7.83 4.96-10.21 1.88-1.22 4-1.68 6.34-1.69zm8.08 11.1c0-1.74-.3-3.08-1-4.33-1.74-3.11-5.24-4.41-8.62-3.89a7.69 7.69 0 0 0-6.67 6.9 7.73 7.73 0 0 0 2.39 6.78 8.19 8.19 0 0 0 7.07 2.08c4.07-.57 6.82-3.79 6.83-7.53z"/><path id="5b0tN" d="M98.06 96.42a5.78 5.78 0 0 1-2.1 7.48 7.67 7.67 0 0 1-8.57-.4c-2.96-2.3-3.02-7.1.46-9.21.11-.07.25-.11.32-.25a6.11 6.11 0 0 1-2.04-2.5 5.78 5.78 0 0 1 3-7.36 6.68 6.68 0 0 1 7.45 1.08c2.1 2.07 2.8 6.16-.58 8.63l-.25.18a5.34 5.34 0 0 1 2.3 2.35zm-6.12-.87c-.38-.02-.8.05-1.21.15a3.17 3.17 0 0 0-2.5 2.87 3.2 3.2 0 0 0 1.9 3.23c.84.36 1.7.43 2.6.31a3.27 3.27 0 0 0 2.72-4.34c-.47-1.36-1.82-2.22-3.51-2.22zm-3.2-6.1a3.3 3.3 0 0 0 3.3 3.23 3.25 3.25 0 0 0 3.26-3.17 3.12 3.12 0 0 0-3.16-3.15c-2.02 0-3.4 1.25-3.4 3.09z"/><path id="5b0tO" d="M71.85 89.27V85.7c0-.1.02-.19.11-.26 2.1-1.66 4.41-2.43 7.06-1.57a5.82 5.82 0 0 1 4.1 4.87c.42 2.38-.27 4.54-1.46 6.56-1.26 2.13-2.83 4.03-4.4 5.93l-.55.66h7.67c.33 0 .39.1.38.4-.02.73-.01 1.46 0 2.18 0 .24-.06.28-.28.28H71.73c-.1 0-.24.06-.29-.08-.04-.13.07-.22.14-.31 1.28-1.55 2.56-3.09 3.8-4.67a41.65 41.65 0 0 0 3.93-5.8c.7-1.3 1.07-2.68.86-4.16-.35-2.4-2.34-3.7-4.7-3.1-1.12.3-2 .95-2.79 1.76-.27.26-.51.54-.83.9z"/><path id="5b0tP" d="M118.93 94.62c0 3.74-2.76 6.96-6.84 7.54a8.16 8.16 0 0 1-7.07-2.08 7.73 7.73 0 0 1-2.38-6.78 7.7 7.7 0 0 1 6.67-6.9c3.37-.52 6.87.77 8.61 3.89a8.3 8.3 0 0 1 1 4.33z"/><path id="5b0tQ" d="M91.94 95.55c1.7 0 3.04.86 3.5 2.22a3.27 3.27 0 0 1-2.71 4.34c-.9.12-1.76.06-2.6-.31a3.2 3.2 0 0 1-1.9-3.23 3.18 3.18 0 0 1 2.5-2.87c.41-.1.83-.17 1.2-.15z"/><path id="5b0tR" d="M88.74 89.45c0-1.85 1.38-3.1 3.4-3.09 1.8.01 3.16 1.38 3.16 3.15a3.26 3.26 0 0 1-3.26 3.17 3.3 3.3 0 0 1-3.3-3.23z"/></defs><g><g transform="translate(-50 -58)"><g><use fill="#002c65" xlink:href="#5b0ta"/></g><g><use fill="#13120f" xlink:href="#5b0tb"/></g><g><use fill="#13120f" xlink:href="#5b0tc"/></g><g><use fill="#13120f" xlink:href="#5b0td"/></g><g><use fill="#13120f" xlink:href="#5b0te"/></g><g><use fill="#13120f" xlink:href="#5b0tf"/></g><g><use fill="#13120f" xlink:href="#5b0tg"/></g><g><use fill="#13120f" xlink:href="#5b0th"/></g><g><use fill="#13120f" xlink:href="#5b0ti"/></g><g><use fill="#13120f" xlink:href="#5b0tj"/></g><g><use fill="#13120f" xlink:href="#5b0tk"/></g><g><use fill="#13120f" xlink:href="#5b0tl"/></g><g><use fill="#13120f" xlink:href="#5b0tm"/></g><g><use fill="#13120f" xlink:href="#5b0tn"/></g><g><use fill="#13120f" xlink:href="#5b0to"/></g><g><use fill="#13120f" xlink:href="#5b0tp"/></g><g><use fill="#13120f" xlink:href="#5b0tq"/></g><g><use fill="#13120f" xlink:href="#5b0tr"/></g><g><use fill="#13120f" xlink:href="#5b0ts"/></g><g><use fill="#13120f" xlink:href="#5b0tt"/></g><g><use fill="#13120f" xlink:href="#5b0tu"/></g><g><use fill="#13120f" xlink:href="#5b0tv"/></g><g><use fill="#13120f" xlink:href="#5b0tw"/></g><g><use fill="#13120f" xlink:href="#5b0tx"/></g><g><use fill="#13120f" xlink:href="#5b0ty"/></g><g><use fill="#13120f" xlink:href="#5b0tz"/></g><g><use fill="#13120f" xlink:href="#5b0tA"/></g><g><use fill="#13120f" xlink:href="#5b0tB"/></g><g><use fill="#13120f" xlink:href="#5b0tC"/></g><g><use fill="#13120f" xlink:href="#5b0tD"/></g><g><use fill="#13120f" xlink:href="#5b0tE"/></g><g><use fill="#13120f" xlink:href="#5b0tF"/></g><g><use fill="#13120f" xlink:href="#5b0tG"/></g><g><use fill="#13120f" xlink:href="#5b0tH"/></g><g><use fill="#13120f" xlink:href="#5b0tI"/></g><g><use fill="#13120f" xlink:href="#5b0tJ"/></g><g><use fill="#13120f" xlink:href="#5b0tK"/></g><g><use fill="#13120f" xlink:href="#5b0tL"/></g><g><use fill="#fefefe" xlink:href="#5b0tM"/></g><g><use fill="#fefefe" xlink:href="#5b0tN"/></g><g><use fill="#fefefe" xlink:href="#5b0tO"/></g><g/><g><use fill="#002c65" xlink:href="#5b0tP"/></g><g><use fill="#002c65" xlink:href="#5b0tQ"/></g><g><use fill="#002c65" xlink:href="#5b0tR"/></g></g></g></svg>