<svg xmlns="http://www.w3.org/2000/svg" xmlns:xlink="http://www.w3.org/1999/xlink" width="144" height="83" viewBox="0 0 144 83"><defs><path id="on2oa" d="M122.94 101.9a35.23 35.23 0 0 1-5.05 16.92 35.53 35.53 0 0 1-16.4 14.37 33.33 33.33 0 0 1-9.7 2.67c-9.91 1.16-18.89-1.23-26.77-7.38a34.84 34.84 0 0 1-12.49-19.06 34.63 34.63 0 0 1-.99-11.84 34.8 34.8 0 0 1 7.43-18.9 35.22 35.22 0 0 1 18.69-12.45c3.98-1.11 8.04-1.5 12.15-1.19 7.15.55 13.6 2.97 19.27 7.37a35.19 35.19 0 0 1 12.28 17.62 34.3 34.3 0 0 1 1.52 8.31c.02.19-.06.42.12.58-.07.6-.16 1.21-.13 1.83.02.38.08.76.07 1.15zM111.51 89.5c-2.34.02-4.46.47-6.35 1.68-3.72 2.38-5.4 5.85-4.96 10.2.41 4.12 2.62 7.05 6.42 8.72a12.15 12.15 0 0 0 7.24.68c2.9-.54 5.28-1.96 6.97-4.4a10.5 10.5 0 0 0 1.8-7.37 10.18 10.18 0 0 0-3.57-6.86 11.4 11.4 0 0 0-7.55-2.65zM96.64 99.9c3.39-2.48 2.67-6.57.58-8.64a6.68 6.68 0 0 0-7.45-1.08 5.79 5.79 0 0 0-3 7.35 6.17 6.17 0 0 0 2.05 2.51c-.08.14-.22.18-.32.25-3.48 2.11-3.42 6.9-.46 9.2a7.67 7.67 0 0 0 8.57.41 5.77 5.77 0 0 0 2.1-7.48 5.29 5.29 0 0 0-2.3-2.34l.23-.18zM72.5 95.27l.8-.9a6.01 6.01 0 0 1 2.8-1.76c2.35-.6 4.35.7 4.7 3.1a6.6 6.6 0 0 1-.87 4.16 41.64 41.64 0 0 1-3.93 5.8c-1.23 1.59-2.51 3.12-3.8 4.67-.07.1-.18.18-.13.31.05.15.19.08.28.08h12.75c.22 0 .3-.04.29-.27-.02-.73-.02-1.46 0-2.2 0-.3-.05-.4-.39-.4-2.41.02-4.82.02-7.23.02h-.43l.55-.67c1.56-1.9 3.13-3.8 4.4-5.92 1.2-2.03 1.87-4.19 1.46-6.57-.43-2.4-1.75-4.1-4.1-4.87-2.65-.86-4.96-.09-7.06 1.57-.1.07-.11.15-.11.26.02 1.16.02 2.32.02 3.6z"/><path id="on2ob" d="M122.94 101.9c.01-.39-.05-.77-.07-1.15-.03-.62.06-1.23.13-1.83a10.12 10.12 0 0 1 4.7-7.29 11.75 11.75 0 0 1 7.37-1.72c2.1.14 4.02.83 5.93 1.62.11.04.23.07.23.24v2.8c-.54-.25-1.03-.5-1.54-.72-1.96-.85-4-1.3-6.14-1.26-4.61.1-8.11 4.17-7.57 8.74.43 3.67 3.08 6.14 6.58 6.72 2.04.34 4-.01 5.94-.6.16-.05.2-.14.2-.3v-3.71c0-.24-.07-.28-.3-.28h-3.3c-.26 0-.36-.02-.36-.31.03-.7.02-1.39.01-2.08 0-.2.04-.25.24-.24h6.42c.18 0 .24.06.24.24V109c0 .14-.03.23-.16.29-3.68 1.56-7.47 2.23-11.35 1.03-4.04-1.26-6.44-4.06-7.13-8.28a.67.67 0 0 1-.07-.14z"/><path id="on2oc" d="M184.83 117.07c0 .3-.06.4-.37.38-.64-.03-1.3-.03-1.93 0-.32.01-.4-.06-.4-.39v-9.9-9.6c0-.3.07-.39.37-.39 1.53.02 3.06 0 4.6.02 1.2.01 2.38.19 3.51.63a5.45 5.45 0 0 1 3.46 3.8 8 8 0 0 1-.14 5.03c-.95 2.46-2.8 3.78-5.37 4.16a6.84 6.84 0 0 1-3.74-.54l.01 6.8zm0-13.35l-.01 3.83c-.01.28.1.4.34.5.49.17 1 .31 1.5.4 1.8.29 3.57-.55 4.43-2.13.6-1.08.69-2.23.5-3.42a3.66 3.66 0 0 0-3.3-3.26c-1.05-.14-2.11-.03-3.17-.08-.23 0-.3.06-.3.3v3.86z"/><path id="on2od" d="M160.02 110.87c-3.27 0-5.86-1.84-6.79-4.82a6.86 6.86 0 0 1 5.14-8.99c2.87-.64 6.14.34 7.86 2.9 2.25 3.34 1.25 9.8-4.69 10.79-.5.08-1 .13-1.52.12zm4.57-7.1zm-.07-.83c-.5-2.84-3.15-4.1-5.6-3.54-2.07.46-3.34 2.21-3.28 4.5.1 4.16 3.7 5.4 6.56 4.11 1.76-.8 2.34-2.34 2.4-4.23-.03-.24-.03-.54-.08-.84z"/><path id="on2oe" d="M177.33 108.92a6.5 6.5 0 0 1-2.67 1.73 4.4 4.4 0 0 1-5.73-3.28 7.52 7.52 0 0 1-.22-1.8v-8.09c0-.26.05-.33.3-.32.69.02 1.37.02 2.05 0 .27 0 .34.06.34.33v7.98c0 .35 0 .7.06 1.05.3 1.47 1.36 2.25 2.86 2.13a4.06 4.06 0 0 0 2.9-1.74c.12-.14.1-.29.1-.44v-8.89c0-.36.1-.44.44-.42.66.03 1.31.01 1.97 0 .2 0 .29.03.29.28v12.9c0 .2-.06.25-.26.25-.73-.02-1.46-.01-2.19 0-.19 0-.25-.05-.24-.25v-1.42z"/><path id="on2of" d="M146.92 100.18c.43-.58.8-1.18 1.26-1.73a4.64 4.64 0 0 1 1.73-1.37c.96-.4 1.88-.18 2.75.28a7 7 0 0 1 1.24.89c.16.13.18.23.07.41-.4.61-.78 1.23-1.15 1.86-.1.18-.17.21-.33.06-.36-.34-.77-.6-1.2-.82-1.03-.55-2-.38-2.87.32a4.22 4.22 0 0 0-1.5 3.41c-.03 2.23-.01 4.47 0 6.7 0 .3-.04.43-.38.4-.67-.03-1.34-.01-2 0-.23 0-.32-.03-.32-.29V97.46c0-.22.04-.3.28-.3.71.02 1.43.02 2.15 0 .24 0 .27.1.27.3v2.72z"/><path id="on2og" d="M138.87 140.96c.45-.8.9-1.57 1.33-2.36.1-.18.2-.26.42-.25.33.02.79-.12.98.06.23.2.07.66.07 1v5.07c0 .23-.05.33-.29.3-.35-.04-.83.15-1.04-.08-.17-.2-.06-.67-.06-1.02v-3.02c-.36.7-.67 1.3-1 1.9-.11.19-.1.52-.41.53-.32.01-.3-.33-.42-.52-.33-.6-.64-1.2-1.01-1.8v3.52c0 .48 0 .49-.47.48-.3 0-.7.14-.86-.06-.16-.18-.06-.58-.06-.87l-.01-5.18c0-.26.08-.28.32-.32.77-.12 1.23.14 1.52.87.23.57.6 1.09.9 1.62l.09.13z"/><path id="on2oh" d="M54.98 141.5c0-.63.1-1.24.39-1.8.48-.93 1.23-1.46 2.3-1.41 1.02.05 1.73.61 2.1 1.54.46 1.13.46 2.3.02 3.44a2.35 2.35 0 0 1-2.27 1.57c-1 0-1.83-.58-2.23-1.57a4.56 4.56 0 0 1-.3-1.77zm3.62.08c-.03-.49 0-.96-.19-1.41-.16-.38-.42-.61-.86-.61-.4 0-.72.19-.85.6-.3.93-.29 1.87 0 2.8.13.4.46.61.85.6.43 0 .7-.2.87-.64.17-.43.15-.9.18-1.34z"/><path id="on2oi" d="M167.11 141.07c.9-1.03 1.9-.98 2.58.08.2-.29.4-.57.74-.71.94-.4 1.93.22 1.98 1.3.04.95 0 1.9.01 2.85 0 .13-.03.2-.17.2h-.07c-.37-.01-.84.12-1.06-.06-.23-.19-.06-.68-.07-1.04-.02-.55 0-1.1-.02-1.64-.01-.52-.17-.7-.5-.7-.35.02-.73.4-.73.78 0 .79-.02 1.58 0 2.37.01.25-.07.31-.3.3a4.91 4.91 0 0 0-.8 0c-.22.01-.3-.05-.29-.28.02-.74.01-1.48.01-2.22 0-.17 0-.34-.05-.5-.13-.46-.5-.59-.86-.28-.25.2-.42.44-.4.8.03.73 0 1.46.01 2.19.01.24-.07.3-.3.29a7 7 0 0 0-.88 0c-.15 0-.2-.05-.2-.2v-3.98c0-.16.04-.21.2-.2.29 0 .58.02.87 0 .27-.02.34.08.3.32v.33z"/><path id="on2oj" d="M73.54 141c.9-1 2.03-.85 2.56.15.26-.46.62-.78 1.16-.82.87-.07 1.53.53 1.55 1.46.03.92 0 1.84 0 2.77 0 .17-.05.25-.22.22h-.07c-.35 0-.81.12-1.02-.05-.22-.19-.06-.67-.07-1.01-.02-.55 0-1.1-.02-1.64-.01-.53-.15-.72-.47-.72-.38 0-.76.4-.76.81v2.34c.01.22-.05.3-.27.28-.3-.02-.59-.02-.88 0-.2.02-.23-.07-.23-.25v-2.18-.19c-.02-.54-.2-.81-.53-.81-.38 0-.78.45-.78.9v2.29c0 .19-.04.26-.24.25-.3-.02-.6-.02-.9 0-.21.01-.25-.07-.24-.26v-3.86c0-.2.03-.3.25-.27h.44c.66-.01.66-.01.74.59z"/><path id="on2ok" d="M94.5 144.85c-.4-.18-.62-.42-.6-.81.04-.39.31-.55.66-.69-.42-.3-.74-.67-.79-1.2-.08-.98.6-1.73 1.72-1.8.73-.06 1.46-.02 2.2-.03.13 0 .19.05.18.18v.4c.01.17-.04.25-.22.23h-.58c.47.82.49 1.38.05 1.93-.4.5-.97.55-1.54.62-.13.01-.27.02-.4.05-.1.03-.23.08-.22.24 0 .14.13.2.26.22.31.03.62.05.94.06.29.02.57.05.85.15.49.17.79.51.85 1.03.05.54-.16.97-.65 1.2-1 .5-2.04.48-3.05.03-.37-.17-.63-.48-.6-.92.03-.53.42-.72.94-.9zm.51-2.77c-.01.14.02.3.08.47.1.28.32.42.62.39.35-.04.53-.36.53-.9 0-.52-.18-.81-.53-.86-.45-.05-.7.26-.7.9zm.7 4.14c.24-.01.48-.03.71-.12.19-.07.3-.2.31-.4.01-.2-.1-.34-.29-.41a1.87 1.87 0 0 0-1.44.02c-.16.06-.29.19-.28.38 0 .2.13.33.31.4.22.1.46.1.68.13z"/><path id="on2ol" d="M160 141.13c.83.93.34 2.36-1 2.49-.27.02-.54.05-.8.1-.12.01-.28.06-.27.24 0 .17.15.21.29.23l1.12.07c.27.01.53.07.77.18.44.21.7.56.72 1.05.03.53-.2.94-.67 1.15-.98.46-2 .45-3 .02-.38-.16-.66-.47-.63-.93.04-.52.42-.72.9-.87-.35-.22-.63-.46-.54-.9.06-.34.32-.49.61-.6-.02-.1-.12-.13-.19-.19-.9-.76-.72-2.12.34-2.61.33-.16.67-.23 1.03-.23h1.85c.23-.02.35.04.3.28a.75.75 0 0 0 0 .26c.05.24-.07.3-.28.27-.15-.02-.32 0-.55 0zm-.77.92h.01l-.05-.4c-.08-.3-.26-.48-.59-.47-.31 0-.47.18-.55.47-.05.18-.05.36-.05.54.03.48.25.75.62.76.35 0 .57-.27.6-.75v-.15zm-.54 4.17zm.74-.12c.17-.08.28-.2.3-.38a.4.4 0 0 0-.28-.43c-.5-.19-1-.2-1.47.03-.17.07-.28.2-.26.4.01.19.13.3.3.38.2.08.43.1.67.12.24-.01.5-.03.74-.12z"/><path id="on2om" d="M62.28 146.65c0 .18-.04.26-.23.25-.3-.02-.6-.02-.91 0-.2 0-.24-.07-.24-.25v-6c0-.2.06-.25.24-.25.26.02.51.02.77 0 .27-.02.46.02.36.4l.43-.27c.76-.4 1.56-.22 2 .5.61.98.63 2.01.09 3.01-.45.82-1.28 1.03-2.12.58l-.39-.24v2.27zm1.45-4.1c0-.28-.03-.55-.14-.81-.15-.35-.38-.47-.73-.4-.34.08-.59.35-.59.67 0 .36.03.73 0 1.08-.04.4.2.55.5.64.31.1.58.01.76-.31.16-.27.2-.56.2-.87z"/><path id="on2on" d="M117.7 140.78c0-.73 0-1.4-.02-2.08 0-.25.04-.38.33-.35.34.03.79-.11.99.06.22.2.06.67.06 1v5.07c0 .23-.03.33-.28.3-.23-.02-.46 0-.7 0-.24 0-.52.05-.39-.36l-.1.01c-.88.8-2.22.48-2.64-.97-.2-.72-.18-1.44.14-2.12.48-1.04 1.5-1.3 2.44-.67l.16.11zm0 1.82v-.7c0-.1-.02-.18-.09-.26-.39-.43-1-.34-1.2.2-.2.5-.18 1.02-.02 1.52.12.36.4.52.73.46a.7.7 0 0 0 .58-.71v-.51z"/><path id="on2oo" d="M101.63 141.57v-2.92c0-.23.05-.31.29-.3.76.04 1.53-.06 2.29.06 1.09.17 1.72.97 1.66 2.02-.07.99-.79 1.65-1.88 1.71-.21.02-.43.02-.65 0-.2-.01-.25.05-.24.25v2.15c0 .19-.05.25-.24.24-.4-.03-.91.13-1.16-.07-.24-.2-.06-.75-.07-1.14v-2zm1.47-1.34v.19c0 .69.08.74.76.58.34-.08.5-.3.53-.6.03-.32-.02-.62-.32-.8-.28-.17-.6-.2-.88-.1-.22.07-.04.38-.09.59v.14z"/><path id="on2op" d="M179.21 141.03c.45-.58.96-.79 1.59-.68.67.12 1.07.63 1.1 1.43.02.93 0 1.84 0 2.77 0 .18-.04.25-.23.23h-.07c-.35-.01-.8.11-1.02-.06-.22-.18-.06-.66-.06-1-.02-.54 0-1.08-.01-1.61 0-.52-.18-.77-.51-.79-.39-.01-.79.4-.8.84 0 .78-.01 1.55.01 2.33 0 .25-.07.3-.3.3a7 7 0 0 0-.88 0c-.15 0-.21-.05-.21-.21v-3.97c0-.16.05-.21.2-.21.28 0 .56.02.84-.01.3-.04.38.1.34.36l.01.28z"/><path id="on2oq" d="M148.74 141.02c.46-.58.98-.8 1.62-.66.67.14 1.04.63 1.06 1.42.02.93 0 1.84 0 2.77 0 .18-.04.25-.22.23h-.07c-.35-.01-.8.11-1.02-.06-.22-.18-.06-.67-.07-1v-1.58c-.01-.54-.18-.8-.51-.82-.4-.01-.8.4-.8.88 0 .74-.02 1.48 0 2.22.02.32-.09.4-.37.36-.26-.03-.53-.01-.8 0-.16.01-.21-.04-.2-.2v-3.97c0-.16.05-.21.2-.2h.84c.26-.03.4.03.34.32v.3z"/><path id="on2or" d="M90.3 140.98c.23-.26.45-.48.75-.58 1-.33 1.86.25 1.9 1.36.04.93 0 1.87.01 2.8 0 .2-.08.22-.24.22-.3-.01-.6-.02-.9 0-.21.01-.25-.07-.24-.25v-1.35-1.06c0-.54-.18-.8-.53-.8-.38 0-.77.4-.78.85 0 .78-.01 1.55.01 2.33 0 .23-.06.3-.28.28-.36-.04-.84.15-1.05-.08-.17-.2-.05-.67-.05-1.02l-.01-3c0-.23.05-.33.3-.3.15.03.31 0 .47 0 .59.02.59.02.64.6z"/><path id="on2os" d="M122.7 144.28c-.39.48-.87.62-1.41.55-.71-.08-1.18-.62-1.2-1.42v-2.81c0-.15.02-.22.19-.21h.95c.2-.01.24.06.24.25v2.44c0 .57.13.76.5.76.4 0 .73-.35.74-.8v-2.33c-.01-.24.03-.35.3-.33.3.03.59.02.88 0 .16 0 .2.05.2.21v3.97c0 .17-.05.22-.2.2h-.7c-.36.06-.6 0-.48-.48z"/><path id="on2ot" d="M114.18 142.6c0 1.35-.88 2.29-2.15 2.29-1.2 0-2.1-.96-2.12-2.26-.01-1.32.9-2.3 2.14-2.3 1.22 0 2.13.97 2.13 2.27zm-1.45.03c0-.3 0-.59-.1-.86-.1-.26-.26-.43-.56-.44-.3 0-.49.14-.58.4a2.6 2.6 0 0 0 0 1.78c.1.25.29.38.56.38.3 0 .47-.15.57-.41.1-.28.1-.57.11-.85z"/><path id="on2ou" d="M146.76 143.7zm-.69 1.08c-.59.18-.88.05-1.15-.5-.36.3-.72.57-1.21.57-.53 0-.93-.26-1.1-.72-.17-.44-.05-.91.35-1.24.46-.4 1.03-.58 1.59-.77.23-.08.4-.16.33-.45-.06-.26-.2-.4-.48-.4-.53-.04-.95.2-1.36.5l-.2.13v-.86c-.01-.14.08-.2.17-.25.74-.49 1.55-.6 2.4-.39.55.14.84.54.85 1.13v1.82c0 .54 0 .54.5.35.1.73.02.86-.69 1.08zm-1.19-1.62v-.37c0-.1-.02-.18-.14-.13-.3.13-.64.24-.86.52a.45.45 0 0 0-.04.51c.09.18.25.23.42.23.43.01.62-.24.62-.76z"/><path id="on2ov" d="M154.4 144.27c-.4.35-.8.62-1.32.58-.46-.04-.8-.25-.98-.69-.17-.42-.1-.81.22-1.14.45-.49 1.07-.68 1.67-.89.23-.08.44-.13.37-.45-.07-.3-.26-.41-.55-.41-.57 0-1 .3-1.5.66 0-.33.02-.6 0-.88 0-.14.1-.19.18-.25.75-.49 1.56-.6 2.4-.38.56.14.85.54.85 1.12v1.82c0 .53.01.53.5.35.07.84.16.75-.69 1.07-.59.2-.88.06-1.15-.5zm-.04-1.11v-.37c0-.1-.02-.18-.14-.13-.31.13-.64.24-.86.52a.45.45 0 0 0-.04.51c.08.18.24.23.42.23.42.01.62-.24.62-.76z"/><path id="on2ow" d="M164.78 143.62c.06.85.01.93-.76 1.13-.34.1-.7.13-1.05.1-.78-.09-1.35-.47-1.6-1.23a2.7 2.7 0 0 1 .3-2.5c.4-.59.97-.86 1.68-.78.7.08 1.14.5 1.38 1.15l.06.2c.31 1.07.27 1.13-.8 1.13-.39 0-.76.01-1.14-.01-.25-.02-.27.07-.2.29.17.7.73 1 1.53.77l.6-.25zm-1.67-1.42c.17-.12.51.18.54-.22.03-.52-.2-.86-.51-.86-.32 0-.56.35-.54.86.02.4.36.1.51.22z"/><path id="on2ox" d="M174.64 142.8c.1 1.12.68 1.33 2.16.85.08.8.02.9-.74 1.1-.36.1-.72.14-1.09.1a1.76 1.76 0 0 1-1.58-1.25 2.74 2.74 0 0 1 .12-2.16c.38-.79 1.07-1.2 1.87-1.11.73.08 1.3.64 1.48 1.49.23.99.23.99-.77.99h-1.45zm.5-.6c.17-.12.5.18.53-.2.04-.53-.2-.88-.5-.88-.31-.01-.55.35-.54.85 0 .43.35.1.5.23z"/><path id="on2oy" d="M81.92 144.78l1.76-3.34c-.44-.08-.84-.04-1.24-.03-.24 0-.34-.05-.34-.32.02-.69 0-.69.68-.69h2.9l-1.7 3.35c.48.07.93.03 1.37.03.28-.01.35.06.34.34-.02.66 0 .66-.66.66h-3.11z"/><path id="on2oz" d="M185.77 143.53v.8c0 .11-.04.17-.14.22-.43.22-.87.36-1.36.28-.72-.1-1.18-.62-1.2-1.37v-1.86c.01-.26-.03-.4-.32-.34-.1.01-.24.06-.3-.06s.05-.2.12-.28l1.45-1.68c.08-.1.15-.25.32-.2.2.06.09.23.1.34.02.32-.1.75.06.95.18.2.62.06.94.06.21 0 .26.07.26.27 0 .61 0 .61-.6.61-.66 0-.66 0-.66.66l.01 1.2c.02.6.3.79.86.57.15-.05.26-.18.46-.17z"/><path id="on2oA" d="M68.99 143.49v.38c0 .7 0 .7-.69.9-1.16.34-2-.29-2-1.5 0-.56-.02-1.11 0-1.67.01-.28-.07-.37-.34-.34-.1.02-.23.07-.29-.06-.05-.12.07-.2.13-.28l1.47-1.7c.08-.1.15-.22.3-.17.16.06.08.2.1.32v.84c-.02.16.04.2.2.2h.8c.19-.01.25.04.25.23.01.64.02.64-.61.64-.64 0-.64 0-.64.64v1.2c.01.64.32.83.9.58l.42-.21z"/><path id="on2oB" d="M132.1 143.5c-.01.37.18.8-.1 1-.4.33-.92.42-1.44.33a1.32 1.32 0 0 1-1.14-1.35v-1.86c0-.27-.04-.4-.34-.36-.1.02-.24.07-.29-.07-.03-.1.05-.18.12-.25l1.47-1.7c.08-.1.16-.24.32-.19.16.06.08.22.1.32.02.34-.15.78.06.97.19.17.62.06.95.06.2-.01.23.06.24.24.01.63.02.63-.62.63-.62 0-.62 0-.62.65v1.24c.02.57.3.76.84.55l.45-.22z"/><path id="on2oC" d="M128.34 143.55v.5c0 .57 0 .57-.56.72-1.24.32-2.4-.3-2.75-1.45-.36-1.23.25-2.5 1.37-2.88a2.32 2.32 0 0 1 1.67.08c.16.06.24.14.22.32v.83c-1.06-.37-1.35-.35-1.69.13-.34.48-.31 1.2.04 1.64.36.43.85.47 1.7.11z"/><path id="on2oD" d="M107.89 141.82c.2-.34.3-.72.51-1.04.34-.5.81-.6 1.32-.28.08.04.19.07.16.17-.08.37-.16.73-.27 1.09-.03.14-.13.01-.2-.02-.48-.2-.75-.11-1.01.37-.35.65-.4 1.36-.4 2.08 0 .57 0 .57-.6.57-.78 0-.78 0-.78-.78v-3.32c0-.21.03-.3.27-.28.24.02.49.02.73 0s.28.07.27.3c-.02.38 0 .76 0 1.14z"/><path id="on2oE" d="M71.1 142.59v1.92c.02.2-.03.28-.25.27-.36-.03-.83.11-1.05-.07-.24-.19-.07-.68-.08-1.04v-2.98c0-.24.06-.32.3-.3.35.02.8-.11 1.02.06.21.19.05.66.06 1v1.14z"/><path id="on2oF" d="M81.23 142.61l.01 1.93c0 .19-.05.24-.24.24-.3-.02-.6-.02-.91 0-.2.01-.23-.08-.23-.26v-3.9c0-.19.06-.25.24-.23.38.03.86-.16 1.08.07.18.18.05.66.05 1.01v1.14z"/><path id="on2oG" d="M87.87 142.6v1.92c.01.21-.05.27-.26.26-.35-.03-.83.11-1.05-.07-.22-.19-.06-.68-.06-1.04 0-.99 0-1.97-.02-2.95 0-.28.08-.35.35-.32.25.02.5.02.76 0 .22-.02.3.03.29.27-.02.64-.01 1.28-.01 1.93z"/><path id="on2oH" d="M188.76 138.04v1.57c0 .08.06.2-.1.22-.2 0-.15-.12-.15-.22v-1.74c0-.1-.05-.24.13-.23.14 0 .29-.04.35.17.13.5.3.97.52 1.48.14-.42.28-.83.4-1.26l.1-.27c.06-.2.22-.1.34-.11.15-.02.13.1.13.2v1.74c0 .08.05.24-.13.24-.2 0-.12-.15-.12-.24-.01-.51 0-1.03-.06-1.56l-.5 1.5c-.04.11-.01.3-.21.29-.17 0-.14-.18-.18-.29l-.46-1.5-.06.01z"/><path id="on2oI" d="M87.17 139.78a.77.77 0 0 1-.75-.77c0-.4.36-.73.76-.73.43 0 .77.33.76.75 0 .43-.34.76-.77.75z"/><path id="on2oJ" d="M80.56 139.78a.76.76 0 0 1-.78-.75c0-.38.34-.73.74-.75.43-.01.77.31.79.73 0 .43-.32.77-.75.77z"/><path id="on2oK" d="M71.17 139.04c0 .42-.34.76-.77.74a.77.77 0 0 1-.75-.77c0-.4.36-.73.76-.73.44 0 .77.34.76.76z"/><path id="on2oL" d="M187.24 138.82v-.4c0-.52 0-.52-.53-.57-.08 0-.18.02-.18-.1 0-.14.1-.12.18-.12h1.38c.07 0 .15-.01.15.1.01.13-.07.12-.16.12-.17 0-.42-.05-.52.04-.13.14-.04.4-.04.6v1.12c0 .08.05.2-.12.2-.16.02-.17-.07-.16-.2v-.79z"/><path id="on2oM" d="M111.51 89.51c2.74.02 5.36.77 7.56 2.66a10.2 10.2 0 0 1 3.57 6.86 10.59 10.59 0 0 1-8.77 11.77c-2.47.46-4.92.33-7.24-.69-3.8-1.66-6.01-4.59-6.42-8.7-.43-4.37 1.24-7.83 4.96-10.21 1.88-1.22 4-1.68 6.34-1.69zm8.08 11.1c0-1.75-.3-3.09-1-4.33-1.74-3.12-5.24-4.41-8.62-3.89a7.69 7.69 0 0 0-6.67 6.9 7.73 7.73 0 0 0 2.38 6.78 8.19 8.19 0 0 0 7.08 2.08c4.07-.57 6.82-3.79 6.83-7.54z"/><path id="on2oN" d="M98.72 102.42a5.78 5.78 0 0 1-2.1 7.48 7.67 7.67 0 0 1-8.57-.4c-2.96-2.31-3.02-7.1.46-9.21.1-.07.25-.11.32-.25a6.11 6.11 0 0 1-2.04-2.5 5.78 5.78 0 0 1 3-7.36 6.68 6.68 0 0 1 7.45 1.07c2.1 2.07 2.8 6.17-.59 8.64l-.24.18a5.34 5.34 0 0 1 2.3 2.35zm-6.13-.87c-.38-.02-.8.05-1.2.15a3.17 3.17 0 0 0-2.5 2.87 3.2 3.2 0 0 0 1.9 3.22c.83.37 1.7.44 2.6.32a3.27 3.27 0 0 0 2.72-4.35c-.47-1.35-1.82-2.21-3.52-2.21zm-3.2-6.1a3.3 3.3 0 0 0 3.3 3.23 3.25 3.25 0 0 0 3.27-3.17 3.12 3.12 0 0 0-3.16-3.15c-2.02 0-3.4 1.25-3.4 3.09z"/><path id="on2oO" d="M72.5 95.27v-3.59c0-.1.03-.18.12-.25 2.1-1.66 4.4-2.43 7.05-1.57a5.82 5.82 0 0 1 4.1 4.87c.42 2.38-.26 4.54-1.46 6.56-1.26 2.13-2.82 4.03-4.4 5.93l-.54.66h7.66c.34 0 .4.09.39.4-.02.72-.02 1.45 0 2.18 0 .24-.07.28-.29.28H72.38c-.09 0-.23.06-.28-.08-.04-.13.07-.23.14-.31 1.27-1.55 2.56-3.09 3.79-4.67a41.65 41.65 0 0 0 3.94-5.8c.7-1.3 1.07-2.68.86-4.16-.35-2.4-2.34-3.7-4.7-3.1-1.12.29-2 .95-2.79 1.76-.28.26-.52.54-.83.9z"/><path id="on2oP" d="M119.59 100.61c-.01 3.75-2.77 6.97-6.84 7.55a8.16 8.16 0 0 1-7.07-2.09 7.73 7.73 0 0 1-2.39-6.77 7.7 7.7 0 0 1 6.67-6.9c3.38-.53 6.88.77 8.62 3.88a8.3 8.3 0 0 1 1 4.33z"/><path id="on2oQ" d="M92.6 101.55c1.7 0 3.04.86 3.5 2.21a3.27 3.27 0 0 1-2.71 4.35c-.9.12-1.77.06-2.6-.32a3.2 3.2 0 0 1-1.9-3.22 3.18 3.18 0 0 1 2.5-2.87c.4-.1.82-.17 1.2-.15z"/><path id="on2oR" d="M89.4 95.45c0-1.85 1.38-3.1 3.4-3.09 1.79.01 3.16 1.38 3.16 3.15a3.26 3.26 0 0 1-3.27 3.17 3.3 3.3 0 0 1-3.3-3.23z"/></defs><g><g transform="translate(-51 -64)"><g><use fill="#002c65" xlink:href="#on2oa"/></g><g><use fill="#fff" xlink:href="#on2ob"/></g><g><use fill="#fff" xlink:href="#on2oc"/></g><g><use fill="#fff" xlink:href="#on2od"/></g><g><use fill="#fff" xlink:href="#on2oe"/></g><g><use fill="#fff" xlink:href="#on2of"/></g><g><use fill="#fff" xlink:href="#on2og"/></g><g><use fill="#fff" xlink:href="#on2oh"/></g><g><use fill="#fff" xlink:href="#on2oi"/></g><g><use fill="#fff" xlink:href="#on2oj"/></g><g><use fill="#fff" xlink:href="#on2ok"/></g><g><use fill="#fff" xlink:href="#on2ol"/></g><g><use fill="#fff" xlink:href="#on2om"/></g><g><use fill="#fff" xlink:href="#on2on"/></g><g><use fill="#fff" xlink:href="#on2oo"/></g><g><use fill="#fff" xlink:href="#on2op"/></g><g><use fill="#fff" xlink:href="#on2oq"/></g><g><use fill="#fff" xlink:href="#on2or"/></g><g><use fill="#fff" xlink:href="#on2os"/></g><g><use fill="#fff" xlink:href="#on2ot"/></g><g><use fill="#fff" xlink:href="#on2ou"/></g><g><use fill="#fff" xlink:href="#on2ov"/></g><g><use fill="#fff" xlink:href="#on2ow"/></g><g><use fill="#fff" xlink:href="#on2ox"/></g><g><use fill="#fff" xlink:href="#on2oy"/></g><g><use fill="#fff" xlink:href="#on2oz"/></g><g><use fill="#fff" xlink:href="#on2oA"/></g><g><use fill="#fff" xlink:href="#on2oB"/></g><g><use fill="#fff" xlink:href="#on2oC"/></g><g><use fill="#fff" xlink:href="#on2oD"/></g><g><use fill="#fff" xlink:href="#on2oE"/></g><g><use fill="#fff" xlink:href="#on2oF"/></g><g><use fill="#fff" xlink:href="#on2oG"/></g><g><use fill="#fff" xlink:href="#on2oH"/></g><g><use fill="#fff" xlink:href="#on2oI"/></g><g><use fill="#fff" xlink:href="#on2oJ"/></g><g><use fill="#fff" xlink:href="#on2oK"/></g><g><use fill="#fff" xlink:href="#on2oL"/></g><g><use fill="#fefefe" xlink:href="#on2oM"/></g><g><use fill="#fefefe" xlink:href="#on2oN"/></g><g><use fill="#fefefe" xlink:href="#on2oO"/></g><g/><g><use fill="#002c65" xlink:href="#on2oP"/></g><g><use fill="#002c65" xlink:href="#on2oQ"/></g><g><use fill="#002c65" xlink:href="#on2oR"/></g></g></g></svg>